<svg width="65" height="65" viewBox="0 0 65 65" fill="none" xmlns="http://www.w3.org/2000/svg">
<rect x="0.5" y="0.666504" width="64" height="64" rx="32" fill="#007AFF"/>
<path d="M47.4912 32.2315C47.2637 26.359 42.3837 21.6665 36.5075 21.6665C34.4634 21.6668 32.4597 22.2361 30.7207 23.3105C28.9817 24.385 27.5761 25.9223 26.6613 27.7503C25.9009 29.2657 25.5033 30.9372 25.5 32.6328C25.5039 32.8904 25.4104 33.14 25.2382 33.3317C25.066 33.5233 24.8278 33.6429 24.5712 33.6665C24.4341 33.6763 24.2963 33.6577 24.1667 33.6119C24.037 33.566 23.9182 33.4939 23.8176 33.4C23.7171 33.3062 23.637 33.1926 23.5823 33.0664C23.5277 32.9402 23.4997 32.804 23.5 32.6665C23.4989 31.2678 23.7244 29.8782 24.1675 28.5515C24.1967 28.4664 24.2024 28.3751 24.184 28.287C24.1657 28.199 24.1239 28.1175 24.0631 28.0513C24.0023 27.985 23.9248 27.9363 23.8387 27.9104C23.7525 27.8845 23.661 27.8823 23.5738 27.904C21.841 28.3359 20.3023 29.3343 19.2018 30.7407C18.1014 32.147 17.5024 33.8808 17.5 35.6665C17.5 40.0653 21.2188 43.6665 25.625 43.6665H36.5C37.9807 43.6649 39.4459 43.3647 40.8079 42.7838C42.1699 42.203 43.4007 41.3533 44.4268 40.2858C45.4529 39.2183 46.2531 37.9548 46.7797 36.5709C47.3062 35.187 47.5482 33.7111 47.4912 32.2315ZM40.2075 35.374C40.1146 35.467 40.0043 35.5407 39.8829 35.5911C39.7615 35.6414 39.6314 35.6673 39.5 35.6673C39.3686 35.6673 39.2385 35.6414 39.1171 35.5911C38.9957 35.5407 38.8854 35.467 38.7925 35.374L36.5 33.0803V40.6665C36.5 40.9317 36.3946 41.1861 36.2071 41.3736C36.0196 41.5611 35.7652 41.6665 35.5 41.6665C35.2348 41.6665 34.9804 41.5611 34.7929 41.3736C34.6054 41.1861 34.5 40.9317 34.5 40.6665V33.0803L32.2075 35.374C32.1146 35.4669 32.0043 35.5406 31.8829 35.5909C31.7615 35.6412 31.6314 35.6671 31.5 35.6671C31.3686 35.6671 31.2385 35.6412 31.1171 35.5909C30.9957 35.5406 30.8854 35.4669 30.7925 35.374C30.6996 35.2811 30.6259 35.1708 30.5756 35.0494C30.5253 34.928 30.4994 34.7979 30.4994 34.6665C30.4994 34.5351 30.5253 34.405 30.5756 34.2836C30.6259 34.1622 30.6996 34.0519 30.7925 33.959L34.7925 29.959C34.8854 29.866 34.9957 29.7923 35.1171 29.7419C35.2385 29.6916 35.3686 29.6657 35.5 29.6657C35.6314 29.6657 35.7615 29.6916 35.8829 29.7419C36.0043 29.7923 36.1146 29.866 36.2075 29.959L40.2075 33.959C40.3005 34.0519 40.3742 34.1622 40.4246 34.2836C40.4749 34.405 40.5008 34.5351 40.5008 34.6665C40.5008 34.7979 40.4749 34.928 40.4246 35.0494C40.3742 35.1708 40.3005 35.2811 40.2075 35.374Z" fill="white"/>
</svg>
