<svg width="20" height="20" viewBox="0 0 20 20" fill="none" xmlns="http://www.w3.org/2000/svg">
<rect width="20" height="20" rx="10" fill="#34C759"/>
<path d="M1.97408 11V5.54545H5.6495V6.49627H3.12731V7.79599H5.4604V8.7468H3.12731V10.0492H5.66016V11H1.97408ZM11.379 7.45508H10.2125C10.1912 7.30415 10.1477 7.1701 10.082 7.05291C10.0163 6.93395 9.93195 6.83274 9.82897 6.74929C9.72599 6.66584 9.60702 6.60192 9.47208 6.55753C9.33891 6.51314 9.1942 6.49094 9.03795 6.49094C8.75564 6.49094 8.50972 6.56108 8.3002 6.70135C8.09069 6.83984 7.92822 7.04226 7.81281 7.30859C7.6974 7.57315 7.63969 7.89453 7.63969 8.27273C7.63969 8.66158 7.6974 8.98828 7.81281 9.25284C7.93 9.5174 8.09335 9.71715 8.30287 9.8521C8.51238 9.98704 8.75475 10.0545 9.02996 10.0545C9.18444 10.0545 9.32737 10.0341 9.45876 9.99325C9.59193 9.95241 9.71001 9.89293 9.81299 9.81481C9.91597 9.73491 10.0012 9.63814 10.0687 9.5245C10.1379 9.41087 10.1859 9.28125 10.2125 9.13565L11.379 9.14098C11.3489 9.39134 11.2734 9.63281 11.1527 9.86541C11.0337 10.0962 10.873 10.3031 10.6706 10.486C10.4699 10.6671 10.2302 10.8109 9.95148 10.9174C9.67449 11.0222 9.36111 11.0746 9.01132 11.0746C8.52481 11.0746 8.0898 10.9645 7.70628 10.7443C7.32453 10.5241 7.02268 10.2054 6.80074 9.78817C6.58057 9.37092 6.47048 8.86577 6.47048 8.27273C6.47048 7.67791 6.58234 7.17188 6.80606 6.75462C7.02979 6.33736 7.33341 6.01953 7.71693 5.80114C8.10045 5.58097 8.53192 5.47088 9.01132 5.47088C9.32737 5.47088 9.62034 5.51527 9.89023 5.60405C10.1619 5.69283 10.4025 5.82244 10.612 5.9929C10.8215 6.16158 10.992 6.36843 11.1234 6.61346C11.2565 6.85849 11.3418 7.13903 11.379 7.45508ZM17.2184 8.27273C17.2184 8.86754 17.1057 9.37358 16.8802 9.79084C16.6565 10.2081 16.3511 10.5268 15.964 10.747C15.5787 10.9654 15.1455 11.0746 14.6643 11.0746C14.1796 11.0746 13.7445 10.9645 13.3592 10.7443C12.9739 10.5241 12.6694 10.2054 12.4457 9.78817C12.222 9.37092 12.1101 8.86577 12.1101 8.27273C12.1101 7.67791 12.222 7.17188 12.4457 6.75462C12.6694 6.33736 12.9739 6.01953 13.3592 5.80114C13.7445 5.58097 14.1796 5.47088 14.6643 5.47088C15.1455 5.47088 15.5787 5.58097 15.964 5.80114C16.3511 6.01953 16.6565 6.33736 16.8802 6.75462C17.1057 7.17188 17.2184 7.67791 17.2184 8.27273ZM16.0492 8.27273C16.0492 7.88743 15.9915 7.5625 15.8761 7.29794C15.7625 7.03338 15.6018 6.83274 15.394 6.69602C15.1863 6.5593 14.943 6.49094 14.6643 6.49094C14.3855 6.49094 14.1423 6.5593 13.9345 6.69602C13.7268 6.83274 13.5652 7.03338 13.4498 7.29794C13.3362 7.5625 13.2793 7.88743 13.2793 8.27273C13.2793 8.65803 13.3362 8.98295 13.4498 9.24751C13.5652 9.51207 13.7268 9.71271 13.9345 9.84943C14.1423 9.98615 14.3855 10.0545 14.6643 10.0545C14.943 10.0545 15.1863 9.98615 15.394 9.84943C15.6018 9.71271 15.7625 9.51207 15.8761 9.24751C15.9915 8.98295 16.0492 8.65803 16.0492 8.27273Z" fill="white"/>
<path d="M4.33026 12.2727H4.72443L5.65128 14.5366H5.68324L6.61009 12.2727H7.00426V15H6.69531V12.9279H6.66868L5.81641 15H5.51811L4.66584 12.9279H4.6392V15H4.33026V12.2727ZM9.96757 13.6364C9.96757 13.924 9.91564 14.1726 9.81177 14.3821C9.7079 14.5916 9.56541 14.7532 9.3843 14.8668C9.20319 14.9805 8.99634 15.0373 8.76374 15.0373C8.53114 15.0373 8.32429 14.9805 8.14318 14.8668C7.96207 14.7532 7.81958 14.5916 7.71571 14.3821C7.61184 14.1726 7.5599 13.924 7.5599 13.6364C7.5599 13.3487 7.61184 13.1001 7.71571 12.8906C7.81958 12.6811 7.96207 12.5195 8.14318 12.4059C8.32429 12.2923 8.53114 12.2354 8.76374 12.2354C8.99634 12.2354 9.20319 12.2923 9.3843 12.4059C9.56541 12.5195 9.7079 12.6811 9.81177 12.8906C9.91564 13.1001 9.96757 13.3487 9.96757 13.6364ZM9.64797 13.6364C9.64797 13.4002 9.60847 13.2009 9.52945 13.0384C9.45133 12.876 9.34524 12.753 9.21118 12.6696C9.07801 12.5861 8.92887 12.5444 8.76374 12.5444C8.59861 12.5444 8.44902 12.5861 8.31496 12.6696C8.1818 12.753 8.07571 12.876 7.99669 13.0384C7.91857 13.2009 7.87951 13.4002 7.87951 13.6364C7.87951 13.8725 7.91857 14.0718 7.99669 14.2343C8.07571 14.3968 8.1818 14.5197 8.31496 14.6032C8.44902 14.6866 8.59861 14.7283 8.76374 14.7283C8.92887 14.7283 9.07801 14.6866 9.21118 14.6032C9.34524 14.5197 9.45133 14.3968 9.52945 14.2343C9.60847 14.0718 9.64797 13.8725 9.64797 13.6364ZM11.3645 15H10.5229V12.2727H11.4018C11.6663 12.2727 11.8927 12.3273 12.0809 12.4365C12.2692 12.5448 12.4134 12.7006 12.5137 12.9039C12.6141 13.1064 12.6642 13.3487 12.6642 13.631C12.6642 13.9151 12.6136 14.1597 12.5124 14.3648C12.4112 14.569 12.2638 14.7261 12.0703 14.8362C11.8768 14.9454 11.6415 15 11.3645 15ZM10.8531 14.707H11.3432C11.5687 14.707 11.7556 14.6635 11.9038 14.5765C12.0521 14.4895 12.1626 14.3657 12.2354 14.205C12.3082 14.0443 12.3446 13.853 12.3446 13.631C12.3446 13.4109 12.3087 13.2213 12.2367 13.0624C12.1648 12.9026 12.0574 12.7801 11.9145 12.6949C11.7716 12.6088 11.5936 12.5657 11.3805 12.5657H10.8531V14.707ZM13.2182 15V12.2727H14.8641V12.5657H13.5485V13.4872H14.7789V13.7802H13.5485V14.707H14.8855V15H13.2182Z" fill="white"/>
</svg>
