<svg width="24" height="24" viewBox="0 0 24 24" fill="none" xmlns="http://www.w3.org/2000/svg">
<rect width="24" height="24" rx="12" fill="#767680" fill-opacity="0.12"/>
<g clip-path="url(#clip0_255_983)">
<path d="M18.1163 10.4262C17.8806 10.18 17.6369 9.92625 17.545 9.70312C17.46 9.49875 17.455 9.16 17.45 8.83187C17.4406 8.22187 17.4306 7.53062 16.95 7.05C16.4694 6.56937 15.7781 6.55937 15.1681 6.55C14.84 6.545 14.5013 6.54 14.2969 6.455C14.0744 6.36312 13.82 6.11937 13.5737 5.88375C13.1425 5.46937 12.6525 5 12 5C11.3475 5 10.8581 5.46937 10.4262 5.88375C10.18 6.11937 9.92625 6.36312 9.70312 6.455C9.5 6.54 9.16 6.545 8.83187 6.55C8.22187 6.55937 7.53062 6.56937 7.05 7.05C6.56937 7.53062 6.5625 8.22187 6.55 8.83187C6.545 9.16 6.54 9.49875 6.455 9.70312C6.36312 9.92562 6.11937 10.18 5.88375 10.4262C5.46937 10.8575 5 11.3475 5 12C5 12.6525 5.46937 13.1419 5.88375 13.5737C6.11937 13.82 6.36312 14.0737 6.455 14.2969C6.54 14.5013 6.545 14.84 6.55 15.1681C6.55937 15.7781 6.56937 16.4694 7.05 16.95C7.53062 17.4306 8.22187 17.4406 8.83187 17.45C9.16 17.455 9.49875 17.46 9.70312 17.545C9.92562 17.6369 10.18 17.8806 10.4262 18.1163C10.8575 18.5306 11.3475 19 12 19C12.6525 19 13.1419 18.5306 13.5737 18.1163C13.82 17.8806 14.0737 17.6369 14.2969 17.545C14.5013 17.46 14.84 17.455 15.1681 17.45C15.7781 17.4406 16.4694 17.4306 16.95 16.95C17.4306 16.4694 17.4406 15.7781 17.45 15.1681C17.455 14.84 17.46 14.5013 17.545 14.2969C17.6369 14.0744 17.8806 13.82 18.1163 13.5737C18.5306 13.1425 19 12.6525 19 12C19 11.3475 18.5306 10.8581 18.1163 10.4262ZM12 16C11.8517 16 11.7067 15.956 11.5833 15.8736C11.46 15.7912 11.3639 15.6741 11.3071 15.537C11.2503 15.4 11.2355 15.2492 11.2644 15.1037C11.2933 14.9582 11.3648 14.8246 11.4697 14.7197C11.5746 14.6148 11.7082 14.5434 11.8537 14.5144C11.9992 14.4855 12.15 14.5003 12.287 14.5571C12.4241 14.6139 12.5412 14.71 12.6236 14.8333C12.706 14.9567 12.75 15.1017 12.75 15.25C12.75 15.4489 12.671 15.6397 12.5303 15.7803C12.3897 15.921 12.1989 16 12 16ZM12.5 12.955V13C12.5 13.1326 12.4473 13.2598 12.3536 13.3536C12.2598 13.4473 12.1326 13.5 12 13.5C11.8674 13.5 11.7402 13.4473 11.6464 13.3536C11.5527 13.2598 11.5 13.1326 11.5 13V12.5C11.5 12.3674 11.5527 12.2402 11.6464 12.1464C11.7402 12.0527 11.8674 12 12 12C12.8269 12 13.5 11.4375 13.5 10.75C13.5 10.0625 12.8269 9.5 12 9.5C11.1731 9.5 10.5 10.0625 10.5 10.75V11C10.5 11.1326 10.4473 11.2598 10.3536 11.3536C10.2598 11.4473 10.1326 11.5 10 11.5C9.86739 11.5 9.74021 11.4473 9.64645 11.3536C9.55268 11.2598 9.5 11.1326 9.5 11V10.75C9.5 9.50938 10.6213 8.5 12 8.5C13.3787 8.5 14.5 9.50938 14.5 10.75C14.5 11.8362 13.64 12.7456 12.5 12.955Z" fill="#8E8E93"/>
</g>
<defs>
<clipPath id="clip0_255_983">
<rect width="16" height="16" fill="white" transform="translate(4 4)"/>
</clipPath>
</defs>
</svg>
