<svg width="18" height="24" viewBox="0 0 18 24" fill="none" xmlns="http://www.w3.org/2000/svg">
<path d="M16.5 3.74985H12.675C12.5029 2.90214 12.043 2.14 11.3732 1.59257C10.7034 1.04514 9.86502 0.746094 9 0.746094C8.13498 0.746094 7.29657 1.04514 6.62681 1.59257C5.95705 2.14 5.49714 2.90214 5.325 3.74985H1.5C1.30109 3.74985 1.11032 3.82887 0.96967 3.96952C0.829018 4.11018 0.75 4.30094 0.75 4.49985C0.75 4.69877 0.829018 4.88953 0.96967 5.03018C1.11032 5.17084 1.30109 5.24985 1.5 5.24985H5.325C5.48759 6.04094 5.90123 6.75839 6.50437 7.29548C5.45977 7.77427 4.5744 8.54261 3.95327 9.50937C3.33214 10.4761 3.0013 11.6008 3 12.7499V18.7499C3 19.1477 3.15804 19.5292 3.43934 19.8105C3.72064 20.0918 4.10218 20.2499 4.5 20.2499H6C6 21.0455 6.31607 21.8086 6.87868 22.3712C7.44129 22.9338 8.20435 23.2499 9 23.2499C9.79565 23.2499 10.5587 22.9338 11.1213 22.3712C11.6839 21.8086 12 21.0455 12 20.2499H13.5C13.8978 20.2499 14.2794 20.0918 14.5607 19.8105C14.842 19.5292 15 19.1477 15 18.7499V12.7499C14.9987 11.6008 14.6679 10.4761 14.0467 9.50937C13.4256 8.54261 12.5402 7.77427 11.4956 7.29548C12.0988 6.75839 12.5124 6.04094 12.675 5.24985H16.5C16.6989 5.24985 16.8897 5.17084 17.0303 5.03018C17.171 4.88953 17.25 4.69877 17.25 4.49985C17.25 4.30094 17.171 4.11018 17.0303 3.96952C16.8897 3.82887 16.6989 3.74985 16.5 3.74985ZM10.5 20.2499C10.5 20.6477 10.342 21.0292 10.0607 21.3105C9.77936 21.5918 9.39782 21.7499 9 21.7499C8.60218 21.7499 8.22064 21.5918 7.93934 21.3105C7.65804 21.0292 7.5 20.6477 7.5 20.2499V15.7499C7.5 15.352 7.65804 14.9705 7.93934 14.6892C8.22064 14.4079 8.60218 14.2499 9 14.2499C9.39782 14.2499 9.77936 14.4079 10.0607 14.6892C10.342 14.9705 10.5 15.352 10.5 15.7499V20.2499ZM13.5 12.7499V18.7499H12V15.7499C12 14.9542 11.6839 14.1911 11.1213 13.6285C10.5587 13.0659 9.79565 12.7499 9 12.7499C8.20435 12.7499 7.44129 13.0659 6.87868 13.6285C6.31607 14.1911 6 14.9542 6 15.7499V18.7499H4.5V12.7499C4.5 11.5564 4.97411 10.4118 5.81802 9.56787C6.66193 8.72396 7.80653 8.24985 9 8.24985C10.1935 8.24985 11.3381 8.72396 12.182 9.56787C13.0259 10.4118 13.5 11.5564 13.5 12.7499ZM6.75 4.49985C6.75 4.05485 6.88196 3.61983 7.12919 3.24982C7.37643 2.87981 7.72783 2.59142 8.13896 2.42112C8.5501 2.25083 9.0025 2.20627 9.43895 2.29309C9.87541 2.3799 10.2763 2.59419 10.591 2.90886C10.9057 3.22353 11.12 3.62444 11.2068 4.0609C11.2936 4.49736 11.249 4.94976 11.0787 5.36089C10.9084 5.77202 10.62 6.12343 10.25 6.37066C9.88002 6.61789 9.44501 6.74985 9 6.74985C8.40326 6.74985 7.83097 6.5128 7.40901 6.09084C6.98705 5.66889 6.75 5.09659 6.75 4.49985Z" fill="black"/>
</svg>
